<svg width="20" height="20" viewBox="0 0 20 20" fill="none" xmlns="http://www.w3.org/2000/svg">
<path d="M19 11C19.5523 11 20 10.5523 20 10C20 9.44772 19.5523 9 19 9L19 11ZM0.292893 9.29289C-0.0976314 9.68342 -0.0976315 10.3166 0.292892 10.7071L6.65685 17.0711C7.04738 17.4616 7.68054 17.4616 8.07107 17.0711C8.46159 16.6805 8.46159 16.0474 8.07107 15.6569L2.41421 10L8.07107 4.34314C8.46159 3.95262 8.46159 3.31946 8.07107 2.92893C7.68054 2.53841 7.04738 2.53841 6.65686 2.92893L0.292893 9.29289ZM19 9L1 9L1 11L19 11L19 9Z" fill="white"/>
</svg>
