<svg width="24" height="24" viewBox="0 0 24 24" fill="none" xmlns="http://www.w3.org/2000/svg">
<path opacity="0.3" d="M19.6002 3.93998C18.3903 2.72957 16.9088 1.82579 15.2789 1.30395C13.649 0.782116 11.918 0.657326 10.2302 0.939981C8.53677 1.22142 6.93551 1.90467 5.56059 2.93246C4.18567 3.96025 3.07715 5.30264 2.32792 6.84712C1.5787 8.3916 1.2106 10.0932 1.25449 11.8092C1.29837 13.5253 1.75296 15.2058 2.58015 16.71C2.60317 16.7712 2.60317 16.8387 2.58015 16.9L1.55015 20.45C1.4828 20.6665 1.47609 20.8973 1.53075 21.1173C1.58541 21.3373 1.69935 21.5382 1.86018 21.698C2.02102 21.8578 2.22258 21.9704 2.44296 22.0237C2.66334 22.0769 2.89411 22.0687 3.11015 22L6.64015 20.94C6.70486 20.9171 6.77545 20.9171 6.84015 20.94C8.41637 21.8251 10.1924 22.2932 12.0002 22.3C12.7763 22.2983 13.5503 22.2179 14.3102 22.06C16.1952 21.6447 17.9338 20.73 19.3437 19.4118C20.7537 18.0935 21.7831 16.4203 22.324 14.5674C22.865 12.7145 22.8975 10.7502 22.4183 8.88045C21.939 7.01067 20.9657 5.30423 19.6002 3.93998ZM8.00015 13.25C7.75293 13.25 7.51125 13.1767 7.30569 13.0393C7.10013 12.902 6.93991 12.7067 6.8453 12.4783C6.7507 12.2499 6.72594 11.9986 6.77417 11.7561C6.8224 11.5136 6.94146 11.2909 7.11627 11.1161C7.29109 10.9413 7.51382 10.8222 7.75629 10.774C7.99877 10.7258 8.2501 10.7505 8.47851 10.8451C8.70692 10.9397 8.90214 11.1 9.03949 11.3055C9.17684 11.5111 9.25015 11.7528 9.25015 12C9.25015 12.3315 9.11846 12.6494 8.88404 12.8839C8.64962 13.1183 8.33168 13.25 8.00015 13.25ZM12.0002 13.25C11.7529 13.25 11.5113 13.1767 11.3057 13.0393C11.1001 12.902 10.9399 12.7067 10.8453 12.4783C10.7507 12.2499 10.7259 11.9986 10.7742 11.7561C10.8224 11.5136 10.9415 11.2909 11.1163 11.1161C11.2911 10.9413 11.5138 10.8222 11.7563 10.774C11.9988 10.7258 12.2501 10.7505 12.4785 10.8451C12.7069 10.9397 12.9021 11.1 13.0395 11.3055C13.1768 11.5111 13.2502 11.7528 13.2502 12C13.2502 12.3315 13.1185 12.6494 12.884 12.8839C12.6496 13.1183 12.3317 13.25 12.0002 13.25ZM16.0002 13.25C15.7529 13.25 15.5113 13.1767 15.3057 13.0393C15.1001 12.902 14.9399 12.7067 14.8453 12.4783C14.7507 12.2499 14.7259 11.9986 14.7742 11.7561C14.8224 11.5136 14.9415 11.2909 15.1163 11.1161C15.2911 10.9413 15.5138 10.8222 15.7563 10.774C15.9988 10.7258 16.2501 10.7505 16.4785 10.8451C16.7069 10.9397 16.9021 11.1 17.0395 11.3055C17.1768 11.5111 17.2502 11.7528 17.2502 12C17.2502 12.3315 17.1185 12.6494 16.884 12.8839C16.6496 13.1183 16.3317 13.25 16.0002 13.25Z" fill="black"/>
<circle cx="20.3078" cy="3.69233" r="2.76923" fill="#2F2F2F"/>
</svg>
