<svg width="18" height="15" viewBox="0 0 18 15" fill="none" xmlns="http://www.w3.org/2000/svg">
<path d="M1.87132 6.28447H1.48217C0.667417 6.28447 0 6.94878 0 7.76372C0 8.57866 0.667238 9.24588 1.48217 9.24588H1.79513C2.43673 12.4982 5.4202 14.9542 8.98857 14.9542C12.5569 14.9542 15.5409 12.4982 16.1826 9.24588H16.5202C17.3351 9.24588 18 8.57866 18 7.76372C18 6.94878 17.3349 6.28447 16.5202 6.28447H16.1076C15.3983 3.4721 12.9193 1.32379 9.87412 0.97058C10.0548 1.22418 10.1642 1.5311 10.1642 1.85962V3.35704C10.1642 4.18216 9.49193 4.85447 8.66682 4.85447C7.84171 4.85447 7.16324 4.18146 7.16706 3.35469L7.17176 2.45098C7.16999 2.21523 7.28879 2.06905 7.37981 1.96162C7.70057 1.58304 8.2771 1.53477 8.65569 1.85557C9.03429 2.17633 9.08311 2.75285 8.76235 3.13145C8.50393 3.43713 8.04504 3.04911 8.30346 2.74347C8.41456 2.61234 8.39943 2.42498 8.2683 2.31388C8.13717 2.20274 7.95752 2.24877 7.83519 2.32555C7.79626 2.35004 7.77446 2.37975 7.77189 2.44803L7.76779 3.35704C7.76548 3.85839 8.16381 4.25432 8.66682 4.25432C9.16984 4.25432 9.5641 3.86007 9.5641 3.35704V1.85962C9.5641 1.35661 9.17335 0.929543 8.65598 0.92749C5.35322 1.0732 2.62199 3.30768 1.87132 6.28447ZM5.98965 5.96976C6.48798 5.96976 6.89806 6.37922 6.89806 6.87755C6.89806 7.3759 6.48798 7.78598 5.98965 7.78598C5.49131 7.78598 5.07948 7.3759 5.07948 6.87755C5.07948 6.37922 5.49131 5.96976 5.98965 5.96976ZM11.9904 5.96976C12.4888 5.96976 12.8983 6.37922 12.8983 6.87755C12.8983 7.3759 12.4888 7.78598 11.9904 7.78598C11.4921 7.78598 11.082 7.3759 11.082 6.87755C11.082 6.37922 11.4921 5.96976 11.9904 5.96976ZM6.26862 10.1848H11.6933C11.8582 10.1854 11.9916 10.3193 11.9922 10.4842C11.9922 11.2197 11.4406 11.7488 10.8294 12.0743C10.2182 12.3997 9.51798 12.5619 8.98857 12.5619C8.45917 12.5619 7.75948 12.3997 7.14831 12.0743C6.53713 11.7488 5.9832 11.2197 5.9832 10.4842C5.98298 10.3299 6.09954 10.2001 6.26862 10.1848Z" fill="#2C2C2C"/>
</svg>
