<svg width="18" height="18" viewBox="0 0 18 18" fill="none" xmlns="http://www.w3.org/2000/svg">
<g opacity="0.8" clip-path="url(#clip0_333_26653)">
<path d="M10.1552 12.4784C9.8348 12.6749 9.42452 12.7832 8.99988 12.7832C8.57525 12.7832 8.16496 12.675 7.84459 12.4784L2.61419 9.27059C2.61419 9.27059 2.14209 8.98121 2.14209 9.63675C2.14209 10.3812 2.14209 12.6144 2.14209 12.6144C2.14209 12.6442 2.14209 12.7937 2.14209 12.84C2.14209 14.5274 5.21238 16.3466 8.99975 16.3466C12.7871 16.3466 15.8574 14.5275 15.8574 12.84C15.8574 12.7937 15.8574 12.6442 15.8574 12.6144C15.8574 12.6144 15.8574 10.2457 15.8574 9.45615C15.8574 8.92996 15.5218 9.18708 15.5218 9.18708L10.1552 12.4784Z" fill="#2C2C2C"/>
<path d="M17.6986 6.71893C18.1005 6.47246 18.1005 6.06912 17.6986 5.82261L9.7307 1.83817C9.32881 1.5917 8.67115 1.5917 8.26925 1.83817L0.301421 5.82261C-0.100474 6.06908 -0.100474 6.47242 0.301421 6.71893L8.26925 11.6057C8.67115 11.8522 9.32881 11.8522 9.7307 11.6057" fill="#2C2C2C"/>
<path d="M17.3691 13.9623C17.3691 12.613 17.3691 8.56527 17.3691 8.56527C17.3691 8.56527 17.3728 8.30964 17.2211 8.39405C17.0995 8.46177 16.8012 8.62802 16.6961 8.71943C16.5748 8.82486 16.6022 9.06154 16.6022 9.06154C16.6022 9.06154 16.6022 12.7371 16.6022 13.9623C16.6022 14.0319 16.5424 14.0651 16.5139 14.0818C16.2384 14.2438 16.0532 14.5427 16.0532 14.8853C16.0532 15.4003 16.4706 15.8177 16.9856 15.8177C17.5006 15.8177 17.918 15.4003 17.918 14.8853C17.918 14.5414 17.7315 14.2415 17.4543 14.08C17.4267 14.0639 17.3691 14.0318 17.3691 13.9623Z" fill="#2C2C2C"/>
</g>
<defs>
<clipPath id="clip0_333_26653">
<rect width="18" height="18" fill="white"/>
</clipPath>
</defs>
</svg>
