<svg width="196" height="66" viewBox="0 0 196 66" fill="none" xmlns="http://www.w3.org/2000/svg">
<g filter="url(#filter0_b_332_15363)">
<rect x="0.799805" y="0.600098" width="194.4" height="64.8" rx="32.4" fill="#B9B9B9" fill-opacity="0.5"/>
<circle opacity="0.5" cx="33.1997" cy="33" r="25.11" stroke="url(#paint0_angular_332_15363)" stroke-width="4.86" stroke-dasharray="4.05 4.05"/>
<path d="M18.765 10.772C18.453 10.2912 17.8088 10.1529 17.3401 10.4829C12.2297 14.0809 8.48571 19.3181 6.74157 25.3412C4.90103 31.6973 5.41054 38.5035 8.17688 44.5147C10.9432 50.5258 15.7814 55.34 21.8063 58.0764C27.8312 60.8127 34.6398 61.2883 40.9866 59.4162C47.3334 57.544 52.7939 53.4492 56.3691 47.881C59.9443 42.3128 61.3951 35.6435 60.4561 29.0933C59.5171 22.5431 56.251 16.55 51.2555 12.2105C46.5217 8.09827 40.5347 5.73148 34.2896 5.48316C33.7169 5.46039 33.2509 5.92613 33.2497 6.49933C33.2486 7.07252 33.7126 7.53595 34.2852 7.56048C40.0314 7.80663 45.5369 9.9924 49.8943 13.7775C54.5133 17.79 57.5331 23.3314 58.4014 29.3879C59.2696 35.4444 57.9282 41.611 54.6224 46.7595C51.3167 51.908 46.2678 55.6942 40.3993 57.4252C34.5309 59.1563 28.2354 58.7165 22.6647 56.1864C17.0939 53.6563 12.6204 49.205 10.0625 43.6469C7.50468 38.0888 7.03357 31.7956 8.73539 25.9186C10.3408 20.3746 13.7786 15.5507 18.4713 12.2253C18.9389 11.8939 19.0771 11.2528 18.765 10.772Z" fill="url(#paint1_angular_332_15363)"/>
<g clip-path="url(#clip0_332_15363)">
<path fill-rule="evenodd" clip-rule="evenodd" d="M40.4897 24.9C40.4897 28.9262 37.2258 32.19 33.1997 32.19C29.1735 32.19 25.9097 28.9262 25.9097 24.9C25.9097 20.8739 29.1735 17.61 33.1997 17.61C37.2258 17.61 40.4897 20.8739 40.4897 24.9ZM32.1398 22.7724C31.8933 23.6459 31.1737 24.3904 30.2706 24.7049C29.3646 24.3904 28.6422 23.6486 28.3985 22.7724C28.3154 22.4821 28.2982 22.1435 28.496 21.9069C28.7139 21.6489 29.1267 21.6059 29.4593 21.7188C29.7746 21.8263 30.0298 22.0494 30.2706 22.2671C30.5085 22.0467 30.7637 21.8263 31.0791 21.7188C31.4116 21.6059 31.8273 21.6516 32.0424 21.9069C32.2402 22.1435 32.223 22.4821 32.1398 22.7724ZM37.9024 22.7724C37.6558 23.6459 36.9362 24.3904 36.0331 24.7049C35.1272 24.3904 34.4047 23.6486 34.161 22.7724C34.0779 22.4821 34.0607 22.1435 34.2585 21.9069C34.4764 21.6489 34.8892 21.6059 35.2218 21.7188C35.5371 21.8263 35.7923 22.0494 36.0331 22.2671C36.2711 22.0467 36.5262 21.8263 36.8416 21.7188C37.1742 21.6059 37.5899 21.6516 37.8049 21.9069C38.0027 22.1435 37.9855 22.4821 37.9024 22.7724ZM35.5572 26.6804H30.7465C30.4398 26.6804 30.2305 26.9868 30.3709 27.2421C30.8985 28.2043 31.9678 28.836 33.1519 28.836C34.3388 28.836 35.4053 28.2043 35.9328 27.2421C36.0732 26.9868 35.864 26.6804 35.5572 26.6804Z" fill="white"/>
</g>
<path d="M22.3723 36.6708C22.8977 36.6708 23.3721 36.7975 23.7954 37.0507C24.2188 37.3002 24.5552 37.6442 24.8047 38.0827C25.0542 38.5211 25.1789 39.022 25.1789 39.5852V42.1821C25.1789 42.7793 25.0542 43.3028 24.8047 43.7527C24.559 44.1987 24.215 44.5465 23.7728 44.7959C23.3343 45.0454 22.8278 45.1702 22.2532 45.1702C21.8223 45.1702 21.4178 45.0889 21.0398 44.9264C20.6618 44.7638 20.333 44.5219 20.0532 44.2006L20.9264 43.3898C21.0814 43.5901 21.2761 43.7508 21.5104 43.8717C21.7448 43.9927 21.9924 44.0532 22.2532 44.0532C22.5896 44.0532 22.8863 43.9719 23.1434 43.8094C23.4042 43.6468 23.6064 43.4351 23.7501 43.1743C23.8937 42.9135 23.9655 42.6338 23.9655 42.3352V40.8383L24.2037 41.0991C23.9693 41.4053 23.6783 41.6472 23.3305 41.8249C22.9827 42.0025 22.6104 42.0914 22.2135 42.0914C21.7032 42.0914 21.2496 41.9742 20.8527 41.7398C20.4558 41.5055 20.1421 41.186 19.9115 40.7816C19.6809 40.3771 19.5656 39.9197 19.5656 39.4094C19.5656 38.8991 19.6941 38.438 19.9512 38.026C20.2082 37.6139 20.5484 37.2851 20.9718 37.0394C21.3951 36.7937 21.862 36.6708 22.3723 36.6708ZM22.3723 37.8162C22.0774 37.8162 21.8072 37.888 21.5615 38.0316C21.3195 38.1715 21.1268 38.3624 20.9831 38.6043C20.8395 38.8462 20.7677 39.1146 20.7677 39.4094C20.7677 39.7043 20.8395 39.9746 20.9831 40.2203C21.1268 40.4622 21.3195 40.655 21.5615 40.7986C21.8034 40.9422 22.0718 41.0141 22.3666 41.0141C22.6614 41.0141 22.9298 40.9422 23.1717 40.7986C23.4137 40.655 23.6064 40.4622 23.7501 40.2203C23.8937 39.9746 23.9655 39.7043 23.9655 39.4094C23.9655 39.1184 23.8937 38.8519 23.7501 38.61C23.6102 38.3681 23.4193 38.1753 23.1774 38.0316C22.9355 37.888 22.6671 37.8162 22.3723 37.8162ZM28.1851 45.0001V38.1394L26.6485 39.0749V37.7538L28.1851 36.8353H29.3928V45.0001H28.1851ZM31.296 45.0001V43.747H32.5491V45.0001H31.296ZM34.1099 44.9944L34.1155 43.9398L37.6706 40.7532C37.9579 40.5 38.1526 40.2581 38.2546 40.0275C38.3605 39.7969 38.4134 39.5663 38.4134 39.3357C38.4134 39.0447 38.3491 38.7839 38.2206 38.5533C38.0921 38.3189 37.9144 38.1337 37.6876 37.9976C37.4608 37.8615 37.2 37.7935 36.9052 37.7935C36.6028 37.7935 36.3325 37.8653 36.0944 38.009C35.86 38.1488 35.6767 38.3359 35.5444 38.5703C35.4121 38.8046 35.3478 39.0579 35.3516 39.3301H34.1382C34.1382 38.8009 34.2573 38.3378 34.4954 37.9409C34.7374 37.5402 35.0681 37.2284 35.4877 37.0054C35.9073 36.7786 36.3873 36.6652 36.9279 36.6652C37.4419 36.6652 37.9031 36.7823 38.3113 37.0167C38.7196 37.2473 39.0409 37.5648 39.2752 37.9693C39.5134 38.3737 39.6325 38.8349 39.6325 39.3527C39.6325 39.727 39.5833 40.0445 39.485 40.3053C39.3868 40.5661 39.2393 40.808 39.0428 41.0311C38.8462 41.2541 38.6005 41.496 38.3057 41.7568L35.5614 44.2063L35.431 43.8661H39.6325V44.9944H34.1099ZM43.8386 45.1702C43.283 45.1702 42.7916 45.0492 42.3644 44.8073C41.9373 44.5616 41.6009 44.2252 41.3552 43.798C41.1132 43.3709 40.9923 42.8795 40.9923 42.3238V39.5115C40.9923 38.9558 41.1132 38.4644 41.3552 38.0373C41.6009 37.6102 41.9373 37.2756 42.3644 37.0337C42.7916 36.788 43.283 36.6652 43.8386 36.6652C44.3943 36.6652 44.8857 36.788 45.3128 37.0337C45.74 37.2756 46.0745 37.6102 46.3164 38.0373C46.5621 38.4644 46.685 38.9558 46.685 39.5115V42.3238C46.685 42.8795 46.5621 43.3709 46.3164 43.798C46.0745 44.2252 45.74 44.5616 45.3128 44.8073C44.8857 45.0492 44.3943 45.1702 43.8386 45.1702ZM43.8386 44.0362C44.141 44.0362 44.4151 43.9643 44.6608 43.8207C44.9102 43.6733 45.1087 43.4767 45.2561 43.231C45.4035 42.9815 45.4772 42.7037 45.4772 42.3975V39.4265C45.4772 39.1241 45.4035 38.85 45.2561 38.6043C45.1087 38.3548 44.9102 38.1583 44.6608 38.0146C44.4151 37.8672 44.141 37.7935 43.8386 37.7935C43.5362 37.7935 43.2603 37.8672 43.0108 38.0146C42.7651 38.1583 42.5685 38.3548 42.4211 38.6043C42.2737 38.85 42.2 39.1241 42.2 39.4265V42.3975C42.2 42.7037 42.2737 42.9815 42.4211 43.231C42.5685 43.4767 42.7651 43.6733 43.0108 43.8207C43.2603 43.9643 43.5362 44.0362 43.8386 44.0362Z" fill="white"/>
<circle opacity="0.4" cx="98" cy="33" r="25.11" stroke="url(#paint2_angular_332_15363)" stroke-width="4.86" stroke-dasharray="4.05 4.05"/>
<path d="M98 6.49277C98 5.9224 98.4625 5.458 99.0325 5.47938C102.46 5.60797 105.836 6.37583 108.987 7.74658C112.454 9.2548 115.573 11.4606 118.15 14.2266C120.727 16.9926 122.707 20.2595 123.966 23.824C125.226 27.3884 125.738 31.174 125.471 34.9451C125.204 38.7161 124.164 42.3918 122.414 45.7432C120.665 49.0946 118.245 52.05 115.303 54.4253C112.362 56.8006 108.964 58.5449 105.319 59.5496C102.007 60.4628 98.5559 60.7472 95.1445 60.3916C94.5772 60.3325 94.1847 59.8075 94.2651 59.2428C94.3455 58.6782 94.8683 58.2877 95.4357 58.3451C98.5662 58.6619 101.731 58.3962 104.77 57.5584C108.141 56.629 111.285 55.0155 114.006 52.8184C116.726 50.6212 118.965 47.8875 120.583 44.7875C122.201 41.6874 123.164 38.2874 123.411 34.7992C123.658 31.311 123.184 27.8093 122.019 24.5122C120.854 21.215 119.022 18.1931 116.638 15.6346C114.255 13.076 111.37 11.0357 108.163 9.64059C105.272 8.38297 102.176 7.67397 99.0324 7.54645C98.4625 7.52334 98 7.06314 98 6.49277Z" fill="url(#paint3_angular_332_15363)"/>
<g clip-path="url(#clip1_332_15363)">
<path d="M95.5877 27.6355C95.8984 27.6355 96.2036 27.6053 96.5013 27.5481C95.8552 27.0185 95.3243 26.3406 94.9644 25.5496C94.8542 25.5245 94.7452 25.4933 94.6375 25.4549C93.166 24.9313 92.3947 23.3077 92.9186 21.8355C93.3201 20.7087 94.3929 19.9514 95.588 19.9514C95.9104 19.9514 96.23 20.007 96.5378 20.1166C98.0096 20.6407 98.7809 22.2641 98.2568 23.7359C98.2171 23.8474 98.1707 23.9548 98.1186 24.059C98.1195 24.0615 98.1205 24.0644 98.1218 24.0673C98.4121 24.7366 99.0243 25.195 99.7314 25.3024C99.9004 25.0244 100.043 24.7268 100.155 24.4126C101.052 21.8937 99.7321 19.1155 97.2139 18.2187C96.6887 18.0319 96.1414 17.937 95.588 17.937C93.5425 17.937 91.707 19.2325 91.0205 21.1601C90.2237 23.3982 91.1771 25.8415 93.1667 26.9871L92.5723 28.6565L92.3703 28.2302C92.1635 27.7952 91.6434 27.6097 91.2082 27.8162C90.773 28.0227 90.5878 28.5434 90.7946 28.9783L91.9284 31.3654C92.0777 31.6799 92.3903 31.8635 92.7165 31.8635C92.842 31.8635 92.9691 31.8365 93.0901 31.779L95.358 30.7017C95.7932 30.4952 95.9784 29.9745 95.7719 29.54C95.5654 29.1044 95.0454 28.9192 94.6102 29.1263L94.1842 29.3287L94.8097 27.5716C95.0664 27.6139 95.3269 27.6355 95.5877 27.6355Z" fill="white"/>
<path d="M105.218 28.1542C105.026 27.712 104.513 27.51 104.071 27.7006L103.111 28.1167L102.741 27.2625C103.556 26.7202 104.187 25.9466 104.555 25.0181C105.031 23.814 105.01 22.4963 104.495 21.3082C103.726 19.5323 101.979 18.3855 100.044 18.3855C99.6732 18.3855 99.3898 18.4138 99.0318 18.4973C99.7352 18.9449 100.243 19.5631 100.596 20.4596C101.524 20.6226 102.262 21.2246 102.646 22.109C102.946 22.8035 102.958 23.5732 102.68 24.2772C102.402 24.9809 101.866 25.5343 101.171 25.8348C100.812 25.9898 100.434 26.0686 100.048 26.0686C99.8794 26.0686 99.7132 26.0537 99.5515 26.0248C98.6252 25.8605 97.8288 25.2436 97.4463 24.3605C97.1569 23.6921 97.135 22.9541 97.3815 22.2723C97.391 22.2456 97.4012 22.219 97.4117 22.192C97.467 22.0528 97.5346 21.9216 97.609 21.7949C97.2744 21.2265 96.757 20.7967 96.128 20.5727C96.0908 20.5597 96.0527 20.5537 96.0155 20.5426C95.8274 20.825 95.6657 21.1277 95.5384 21.4505C95.5317 21.4673 95.5256 21.4838 95.519 21.5004C95.0628 22.6914 95.0901 23.9888 95.5974 25.1607C96.174 26.4921 97.3008 27.4702 98.6439 27.8759C99.0919 28.0113 99.5639 28.083 100.048 28.083C100.418 28.083 100.783 28.0367 101.14 27.9534L101.511 28.8089L100.55 29.2254C100.108 29.4167 99.9054 29.93 100.097 30.3719C100.239 30.7014 100.56 30.8974 100.898 30.8974C101.013 30.8974 101.13 30.8745 101.243 30.8253L102.203 30.4094L102.558 31.2275C102.7 31.5566 103.021 31.7532 103.359 31.7532C103.474 31.7532 103.592 31.73 103.704 31.6811C104.147 31.4895 104.35 30.9762 104.158 30.5346L103.804 29.7162L104.764 29.3004C105.206 29.1095 105.409 28.5964 105.218 28.1542Z" fill="white"/>
</g>
<path d="M85.9268 45.1702C85.5072 45.1702 85.116 45.0851 84.7531 44.915C84.394 44.7411 84.0859 44.503 83.8289 44.2006C83.5719 43.8944 83.3885 43.5429 83.2789 43.146L84.4186 42.8398C84.4828 43.0817 84.5925 43.2915 84.7474 43.4692C84.9062 43.6468 85.0914 43.7848 85.3031 43.8831C85.5148 43.9776 85.734 44.0248 85.9608 44.0248C86.2594 44.0248 86.5297 43.953 86.7716 43.8094C87.0173 43.6657 87.2101 43.4729 87.35 43.231C87.4936 42.9891 87.5654 42.7226 87.5654 42.4316C87.5654 42.1329 87.4917 41.8627 87.3443 41.6207C87.2007 41.3788 87.006 41.1879 86.7603 41.0481C86.5184 40.9044 86.2519 40.8326 85.9608 40.8326C85.6282 40.8326 85.3466 40.8988 85.116 41.0311C84.8854 41.1634 84.7059 41.3165 84.5773 41.4903L83.5454 41.1275L83.7949 36.8353H88.2005V37.9523H84.4016L84.8835 37.5043L84.6851 40.7192L84.4526 40.4187C84.6681 40.2032 84.9251 40.0388 85.2237 39.9254C85.5223 39.812 85.8191 39.7553 86.1139 39.7553C86.6204 39.7553 87.0721 39.8725 87.469 40.1069C87.8697 40.3412 88.1853 40.6606 88.4159 41.0651C88.6465 41.4658 88.7618 41.9213 88.7618 42.4316C88.7618 42.9381 88.6314 43.3992 88.3706 43.815C88.1097 44.2271 87.7639 44.5559 87.333 44.8016C86.902 45.0473 86.4333 45.1702 85.9268 45.1702ZM92.5381 45.1702C92.1185 45.1702 91.7273 45.0851 91.3644 44.915C91.0053 44.7411 90.6972 44.503 90.4402 44.2006C90.1832 43.8944 89.9998 43.5429 89.8902 43.146L91.0299 42.8398C91.0941 43.0817 91.2038 43.2915 91.3587 43.4692C91.5175 43.6468 91.7027 43.7848 91.9144 43.8831C92.1261 43.9776 92.3453 44.0248 92.5721 44.0248C92.8707 44.0248 93.141 43.953 93.3829 43.8094C93.6286 43.6657 93.8214 43.4729 93.9613 43.231C94.1049 42.9891 94.1767 42.7226 94.1767 42.4316C94.1767 42.1329 94.103 41.8627 93.9556 41.6207C93.812 41.3788 93.6173 41.1879 93.3716 41.0481C93.1297 40.9044 92.8632 40.8326 92.5721 40.8326C92.2395 40.8326 91.9579 40.8988 91.7273 41.0311C91.4967 41.1634 91.3172 41.3165 91.1886 41.4903L90.1567 41.1275L90.4062 36.8353H94.8118V37.9523H91.0129L91.4948 37.5043L91.2964 40.7192L91.0639 40.4187C91.2794 40.2032 91.5364 40.0388 91.835 39.9254C92.1336 39.812 92.4304 39.7553 92.7252 39.7553C93.2317 39.7553 93.6834 39.8725 94.0803 40.1069C94.481 40.3412 94.7967 40.6606 95.0272 41.0651C95.2578 41.4658 95.3731 41.9213 95.3731 42.4316C95.3731 42.9381 95.2427 43.3992 94.9819 43.815C94.7211 44.2271 94.3752 44.5559 93.9443 44.8016C93.5133 45.0473 93.0446 45.1702 92.5381 45.1702ZM96.9324 45.0001V43.747H98.1855V45.0001H96.9324ZM103.432 45.0001V43.5769H99.7463V42.4542L102.4 36.8353H103.755L101.101 42.4542H103.432V40.2429H104.634V42.4542H105.445V43.5769H104.634V45.0001H103.432ZM109.652 45.1702C109.097 45.1702 108.605 45.0492 108.178 44.8073C107.751 44.5616 107.414 44.2252 107.169 43.798C106.927 43.3709 106.806 42.8795 106.806 42.3238V39.5115C106.806 38.9558 106.927 38.4644 107.169 38.0373C107.414 37.6102 107.751 37.2756 108.178 37.0337C108.605 36.788 109.097 36.6652 109.652 36.6652C110.208 36.6652 110.699 36.788 111.126 37.0337C111.554 37.2756 111.888 37.6102 112.13 38.0373C112.376 38.4644 112.499 38.9558 112.499 39.5115V42.3238C112.499 42.8795 112.376 43.3709 112.13 43.798C111.888 44.2252 111.554 44.5616 111.126 44.8073C110.699 45.0492 110.208 45.1702 109.652 45.1702ZM109.652 44.0362C109.955 44.0362 110.229 43.9643 110.474 43.8207C110.724 43.6733 110.922 43.4767 111.07 43.231C111.217 42.9815 111.291 42.7037 111.291 42.3975V39.4265C111.291 39.1241 111.217 38.85 111.07 38.6043C110.922 38.3548 110.724 38.1583 110.474 38.0146C110.229 37.8672 109.955 37.7935 109.652 37.7935C109.35 37.7935 109.074 37.8672 108.824 38.0146C108.579 38.1583 108.382 38.3548 108.235 38.6043C108.087 38.85 108.014 39.1241 108.014 39.4265V42.3975C108.014 42.7037 108.087 42.9815 108.235 43.231C108.382 43.4767 108.579 43.6733 108.824 43.8207C109.074 43.9643 109.35 44.0362 109.652 44.0362Z" fill="white"/>
<circle opacity="0.4" cx="162.8" cy="33" r="25.11" stroke="url(#paint4_angular_332_15363)" stroke-width="4.86" stroke-dasharray="4.05 4.05"/>
<path d="M136.947 27.116C136.391 26.9892 135.835 27.337 135.73 27.8975C134.737 33.1518 135.295 38.5897 137.347 43.5438C139.53 48.8164 143.298 53.2806 148.128 56.3191C152.959 59.3576 158.614 60.8204 164.312 60.5052C170.01 60.1901 175.47 58.1126 179.936 54.5599C184.402 51.0073 187.654 46.1549 189.243 40.6737C190.832 35.1925 190.678 29.3531 188.804 23.9628C186.93 18.5726 183.427 13.8976 178.781 10.5843C174.415 7.47115 169.242 5.70454 163.899 5.48953C163.329 5.46659 162.865 5.92972 162.864 6.50009C162.862 7.07046 163.324 7.53192 163.894 7.55659C168.808 7.76934 173.565 9.40139 177.582 12.266C181.88 15.3308 185.119 19.6552 186.853 24.6412C188.587 29.6272 188.729 35.0286 187.259 40.0987C185.79 45.1689 182.781 49.6573 178.65 52.9435C174.519 56.2297 169.469 58.1514 164.198 58.4429C158.927 58.7344 153.696 57.3813 149.228 54.5707C144.76 51.7601 141.275 47.6307 139.255 42.7536C137.367 38.195 136.847 33.1935 137.745 28.3568C137.849 27.7961 137.503 27.2427 136.947 27.116Z" fill="url(#paint5_angular_332_15363)"/>
<g clip-path="url(#clip2_332_15363)">
<path d="M169.716 24.6929C169.129 25.9049 168.086 27.0102 167.138 27.9022C166.456 28.5422 165.09 29.8283 163.609 30.7529C163.114 31.061 162.486 31.061 161.991 30.7529C160.512 29.8283 159.143 28.5422 158.462 27.9022C157.513 27.0102 156.47 25.902 155.883 24.6929C154.935 22.7312 155.869 20.1532 157.813 19.2316C159.662 18.3574 161.28 18.956 162.8 20.1591C164.32 18.956 165.938 18.3574 167.784 19.2316C169.731 20.1532 170.664 22.7312 169.716 24.6929Z" fill="white"/>
</g>
<path d="M149.141 45.0001L152.01 37.9636H148.375V36.8353H153.285V37.9636L150.422 45.0001H149.141ZM157.305 36.6708C157.83 36.6708 158.304 36.7975 158.728 37.0507C159.151 37.3002 159.488 37.6442 159.737 38.0827C159.987 38.5211 160.111 39.022 160.111 39.5852V42.1821C160.111 42.7793 159.987 43.3028 159.737 43.7527C159.491 44.1987 159.147 44.5465 158.705 44.7959C158.267 45.0454 157.76 45.1702 157.186 45.1702C156.755 45.1702 156.35 45.0889 155.972 44.9264C155.594 44.7638 155.265 44.5219 154.986 44.2006L155.859 43.3898C156.014 43.5901 156.208 43.7508 156.443 43.8717C156.677 43.9927 156.925 44.0532 157.186 44.0532C157.522 44.0532 157.819 43.9719 158.076 43.8094C158.337 43.6468 158.539 43.4351 158.682 43.1743C158.826 42.9135 158.898 42.6338 158.898 42.3352V40.8383L159.136 41.0991C158.902 41.4053 158.611 41.6472 158.263 41.8249C157.915 42.0025 157.543 42.0914 157.146 42.0914C156.636 42.0914 156.182 41.9742 155.785 41.7398C155.388 41.5055 155.074 41.186 154.844 40.7816C154.613 40.3771 154.498 39.9197 154.498 39.4094C154.498 38.8991 154.626 38.438 154.884 38.026C155.141 37.6139 155.481 37.2851 155.904 37.0394C156.327 36.7937 156.794 36.6708 157.305 36.6708ZM157.305 37.8162C157.01 37.8162 156.739 37.888 156.494 38.0316C156.252 38.1715 156.059 38.3624 155.915 38.6043C155.772 38.8462 155.7 39.1146 155.7 39.4094C155.7 39.7043 155.772 39.9746 155.915 40.2203C156.059 40.4622 156.252 40.655 156.494 40.7986C156.736 40.9422 157.004 41.0141 157.299 41.0141C157.594 41.0141 157.862 40.9422 158.104 40.7986C158.346 40.655 158.539 40.4622 158.682 40.2203C158.826 39.9746 158.898 39.7043 158.898 39.4094C158.898 39.1184 158.826 38.8519 158.682 38.61C158.543 38.3681 158.352 38.1753 158.11 38.0316C157.868 37.888 157.599 37.8162 157.305 37.8162ZM161.777 45.0001V43.747H163.03V45.0001H161.777ZM167.624 45.1702C167.095 45.1702 166.618 45.0454 166.195 44.7959C165.772 44.5427 165.435 44.1968 165.186 43.7583C164.94 43.3199 164.817 42.8209 164.817 42.2615V39.6589C164.817 39.0655 164.94 38.5438 165.186 38.094C165.435 37.6442 165.779 37.2945 166.218 37.0451C166.66 36.7956 167.168 36.6708 167.743 36.6708C168.174 36.6708 168.578 36.7521 168.956 36.9146C169.334 37.0772 169.661 37.3191 169.937 37.6404L169.07 38.4512C168.915 38.2509 168.72 38.0921 168.486 37.9749C168.255 37.854 168.007 37.7935 167.743 37.7935C167.403 37.7935 167.104 37.8748 166.847 38.0373C166.59 38.1961 166.388 38.4059 166.24 38.6667C166.097 38.9275 166.025 39.2072 166.025 39.5058V41.0027L165.792 40.7419C166.027 40.4357 166.318 40.1938 166.666 40.0161C167.013 39.8385 167.386 39.7496 167.783 39.7496C168.289 39.7496 168.741 39.8687 169.138 40.1069C169.538 40.3412 169.852 40.6606 170.079 41.0651C170.31 41.4695 170.425 41.925 170.425 42.4316C170.425 42.9419 170.296 43.4049 170.039 43.8207C169.786 44.2327 169.446 44.5616 169.019 44.8073C168.595 45.0492 168.13 45.1702 167.624 45.1702ZM167.624 44.0305C167.919 44.0305 168.187 43.9587 168.429 43.815C168.671 43.6714 168.864 43.4786 169.007 43.2367C169.151 42.9948 169.223 42.7264 169.223 42.4316C169.223 42.1367 169.151 41.8683 169.007 41.6264C168.867 41.3845 168.677 41.1917 168.435 41.0481C168.193 40.9044 167.924 40.8326 167.629 40.8326C167.335 40.8326 167.064 40.9044 166.819 41.0481C166.577 41.1917 166.384 41.3845 166.24 41.6264C166.097 41.8683 166.025 42.1367 166.025 42.4316C166.025 42.7226 166.097 42.9891 166.24 43.231C166.384 43.4729 166.577 43.6676 166.819 43.815C167.061 43.9587 167.329 44.0305 167.624 44.0305ZM174.281 45.1702C173.862 45.1702 173.471 45.0851 173.108 44.915C172.749 44.7411 172.441 44.503 172.184 44.2006C171.927 43.8944 171.743 43.5429 171.634 43.146L172.773 42.8398C172.838 43.0817 172.947 43.2915 173.102 43.4692C173.261 43.6468 173.446 43.7848 173.658 43.8831C173.869 43.9776 174.089 44.0248 174.315 44.0248C174.614 44.0248 174.884 43.953 175.126 43.8094C175.372 43.6657 175.565 43.4729 175.705 43.231C175.848 42.9891 175.92 42.7226 175.92 42.4316C175.92 42.1329 175.846 41.8627 175.699 41.6207C175.555 41.3788 175.361 41.1879 175.115 41.0481C174.873 40.9044 174.607 40.8326 174.315 40.8326C173.983 40.8326 173.701 40.8988 173.471 41.0311C173.24 41.1634 173.061 41.3165 172.932 41.4903L171.9 41.1275L172.15 36.8353H176.555V37.9523H172.756L173.238 37.5043L173.04 40.7192L172.807 40.4187C173.023 40.2032 173.28 40.0388 173.578 39.9254C173.877 39.812 174.174 39.7553 174.469 39.7553C174.975 39.7553 175.427 39.8725 175.824 40.1069C176.224 40.3412 176.54 40.6606 176.771 41.0651C177.001 41.4658 177.116 41.9213 177.116 42.4316C177.116 42.9381 176.986 43.3992 176.725 43.815C176.464 44.2271 176.119 44.5559 175.688 44.8016C175.257 45.0473 174.788 45.1702 174.281 45.1702Z" fill="white"/>
</g>
<defs>
<filter id="filter0_b_332_15363" x="-23.5002" y="-23.6999" width="243" height="113.4" filterUnits="userSpaceOnUse" color-interpolation-filters="sRGB">
<feFlood flood-opacity="0" result="BackgroundImageFix"/>
<feGaussianBlur in="BackgroundImageFix" stdDeviation="12.15"/>
<feComposite in2="SourceAlpha" operator="in" result="effect1_backgroundBlur_332_15363"/>
<feBlend mode="normal" in="SourceGraphic" in2="effect1_backgroundBlur_332_15363" result="shape"/>
</filter>
<radialGradient id="paint0_angular_332_15363" cx="0" cy="0" r="1" gradientUnits="userSpaceOnUse" gradientTransform="translate(33.1997 33) rotate(-90) scale(27.54)">
<stop stop-color="#E90000"/>
<stop offset="0.515625" stop-color="#F7DE00"/>
<stop offset="1" stop-color="#00E909"/>
</radialGradient>
<radialGradient id="paint1_angular_332_15363" cx="0" cy="0" r="1" gradientUnits="userSpaceOnUse" gradientTransform="translate(33.1948 33.0119) rotate(-90) scale(27.5295 27.54)">
<stop stop-color="#E90000"/>
<stop offset="0.515625" stop-color="#F7DE00"/>
<stop offset="1" stop-color="#00E909"/>
</radialGradient>
<radialGradient id="paint2_angular_332_15363" cx="0" cy="0" r="1" gradientUnits="userSpaceOnUse" gradientTransform="translate(98 33) rotate(-90) scale(27.54)">
<stop stop-color="#E90000"/>
<stop offset="0.515625" stop-color="#F7DE00"/>
<stop offset="1" stop-color="#00E909"/>
</radialGradient>
<radialGradient id="paint3_angular_332_15363" cx="0" cy="0" r="1" gradientUnits="userSpaceOnUse" gradientTransform="translate(98 33) rotate(-90) scale(27.54)">
<stop stop-color="#E90000"/>
<stop offset="0.515625" stop-color="#F7DE00"/>
<stop offset="1" stop-color="#00E909"/>
</radialGradient>
<radialGradient id="paint4_angular_332_15363" cx="0" cy="0" r="1" gradientUnits="userSpaceOnUse" gradientTransform="translate(162.8 33) rotate(-90) scale(27.54)">
<stop stop-color="#E90000"/>
<stop offset="0.515625" stop-color="#F7DE00"/>
<stop offset="1" stop-color="#00E909"/>
</radialGradient>
<radialGradient id="paint5_angular_332_15363" cx="0" cy="0" r="1" gradientUnits="userSpaceOnUse" gradientTransform="translate(162.791 33.018) rotate(-90) scale(27.5293 27.54)">
<stop stop-color="#E90000"/>
<stop offset="0.515625" stop-color="#F7DE00"/>
<stop offset="1" stop-color="#00E909"/>
</radialGradient>
<clipPath id="clip0_332_15363">
<rect width="14.58" height="14.58" fill="white" transform="translate(25.9097 17.61)"/>
</clipPath>
<clipPath id="clip1_332_15363">
<rect width="14.58" height="14.58" fill="white" transform="translate(90.71 17.61)"/>
</clipPath>
<clipPath id="clip2_332_15363">
<rect width="14.58" height="14.58" fill="white" transform="translate(155.51 17.61)"/>
</clipPath>
</defs>
</svg>
