<svg width="24" height="24" viewBox="0 0 24 24" fill="none" xmlns="http://www.w3.org/2000/svg">
<g clip-path="url(#clip0_333_24939)">
<path d="M10.3333 12.973H7.66667C5.6341 12.9754 3.68549 13.7621 2.24824 15.1605C0.810999 16.5589 0.00246992 18.4548 0 20.4324C0.000706316 21.3784 0.387242 22.2854 1.07472 22.9543C1.7622 23.6232 2.69442 23.9993 3.66667 24H14.3333C15.3056 23.9993 16.2378 23.6232 16.9253 22.9543C17.6128 22.2854 17.9993 21.3784 18 20.4324C17.9975 18.4548 17.189 16.5589 15.7518 15.1605C14.3145 13.7621 12.3659 12.9754 10.3333 12.973Z" fill="white"/>
<path d="M9 12.3243C12.4978 12.3243 15.3333 9.56543 15.3333 6.16216C15.3333 2.75889 12.4978 0 9 0C5.5022 0 2.66667 2.75889 2.66667 6.16216C2.66667 9.56543 5.5022 12.3243 9 12.3243Z" fill="white"/>
<path d="M23.1964 10.6964H20.4643C20.3755 10.6964 20.3036 10.6245 20.3036 10.5357V7.80357C20.3036 7.3598 19.9438 7 19.5 7C19.0562 7 18.6964 7.3598 18.6964 7.80357V10.5357C18.6964 10.6245 18.6245 10.6964 18.5357 10.6964H15.8036C15.3598 10.6964 15 11.0562 15 11.5C15 11.9438 15.3598 12.3036 15.8036 12.3036H18.5357C18.6245 12.3036 18.6964 12.3755 18.6964 12.4643V15.1964C18.6964 15.6402 19.0562 16 19.5 16C19.9438 16 20.3036 15.6402 20.3036 15.1964V12.4643C20.3036 12.3755 20.3755 12.3036 20.4643 12.3036H23.1964C23.6402 12.3036 24 11.9438 24 11.5C24 11.0562 23.6402 10.6964 23.1964 10.6964Z" fill="white"/>
</g>
<defs>
<clipPath id="clip0_333_24939">
<rect width="24" height="24" fill="white"/>
</clipPath>
</defs>
</svg>
