<svg width="16" height="18" viewBox="0 0 16 18" fill="none" xmlns="http://www.w3.org/2000/svg">
<g clip-path="url(#clip0_333_26647)">
<path d="M15.8206 0H11.3876V2.08528H12.2619L11.0346 3.31255C10.144 2.70615 9.0706 2.35318 7.91211 2.35318C6.75362 2.35318 5.68021 2.70796 4.78962 3.31255L3.56235 2.08528H4.43665V0H0V4.43484H2.08528V3.56054L3.31255 4.78781C2.70615 5.6784 2.35318 6.75181 2.35318 7.9103C2.35318 10.6219 4.29726 12.8791 6.86766 13.3679V14.5625H5.1607V16.6478H6.86766V17.9982H8.95294V16.6478H10.6599V14.5625H8.95294V13.3679C10.0698 13.1561 11.0672 12.6112 11.8401 11.8401C12.9244 10.7558 13.4674 9.33307 13.4674 7.9103C13.4674 6.75181 13.1126 5.6784 12.508 4.78781L13.7353 3.56054V4.43484H15.8206V0ZM11.3821 7.9103C11.3821 8.79907 11.0436 9.68785 10.3648 10.3648C9.73673 10.993 8.86967 11.3821 7.9103 11.3821C5.99336 11.3821 4.43846 9.82723 4.43846 7.9103C4.43846 5.99336 5.99336 4.43846 7.9103 4.43846C9.82723 4.43846 11.3821 5.99336 11.3821 7.9103Z" fill="#525153"/>
</g>
<defs>
<clipPath id="clip0_333_26647">
<rect width="15.8206" height="18" fill="white"/>
</clipPath>
</defs>
</svg>
