<svg width="18" height="18" viewBox="0 0 18 18" fill="none" xmlns="http://www.w3.org/2000/svg">
<g opacity="0.8" clip-path="url(#clip0_333_26663)">
<path d="M8.69241 3.21587C9.05757 2.85071 9.54317 2.64966 10.0597 2.64966C10.1609 2.64966 10.2608 2.65763 10.359 2.67273L8.02609 0.339786C7.57304 -0.113262 6.83833 -0.113262 6.38528 0.339786C6.16982 0.555393 6.05707 0.834721 6.04663 1.11707L8.43987 3.5103C8.51567 3.40676 8.59999 3.30843 8.69241 3.21587Z" fill="#2C2C2C"/>
<path d="M17.8455 8.86658L17.5301 8.55114C17.1156 8.13654 16.8595 7.58969 16.8063 7.00577L16.789 6.81571C16.7248 6.10888 16.4148 5.44709 15.913 4.94529L12.9607 1.99298C12.6175 1.6498 12.0609 1.6498 11.7178 1.99298C11.4143 2.29648 11.2747 2.7016 11.2985 3.09876C11.3427 3.13584 11.3857 3.1747 11.427 3.2159L14.9013 6.69033C15.5763 7.3653 15.9956 8.26041 16.0819 9.211L16.0992 9.40107C16.13 9.73862 16.2789 10.0565 16.5185 10.2962L16.8401 10.6178L17.8455 9.61242C18.0515 9.40642 18.0515 9.07257 17.8455 8.86658Z" fill="#2C2C2C"/>
<path d="M15.7727 11.0418C15.3581 10.6273 15.102 10.0804 15.049 9.49652L15.0317 9.30632C14.9674 8.59963 14.6574 7.9377 14.1556 7.4359L10.6812 3.96161C10.338 3.61843 9.78157 3.61843 9.43839 3.96161C8.87548 4.52452 8.87548 5.43721 9.43839 6.00013L5.26194 1.82367C4.80889 1.37062 4.07431 1.37062 3.62127 1.82367C3.16822 2.27672 3.16822 3.01143 3.62127 3.46448L3.124 2.96721C2.67095 2.51416 1.93637 2.51416 1.48333 2.96721C1.03028 3.42026 1.03028 4.15483 1.48333 4.60788L1.98059 5.10515C1.52741 4.6521 0.792835 4.6521 0.339786 5.10515C-0.113262 5.5582 -0.113262 6.29277 0.339786 6.74582L1.98059 8.38649C1.52741 7.93344 0.792835 7.93344 0.339786 8.38649C-0.113262 8.83954 -0.113262 9.57425 0.339786 10.0273L5.95201 15.6394C6.45382 16.1413 7.11574 16.4513 7.82244 16.5156L8.01264 16.5329C8.59656 16.5859 9.14327 16.842 9.55787 17.2566L10.1469 17.8454C10.3527 18.0514 10.6866 18.0514 10.8926 17.8454L16.3616 12.3765C16.5676 12.1705 16.5676 11.8366 16.3616 11.6308L15.7727 11.0418Z" fill="#2C2C2C"/>
</g>
<defs>
<clipPath id="clip0_333_26663">
<rect width="18" height="18" fill="white"/>
</clipPath>
</defs>
</svg>
