<svg width="16" height="16" viewBox="0 0 16 16" fill="none" xmlns="http://www.w3.org/2000/svg">
<g clip-path="url(#clip0_333_24880)">
<path d="M7.77234 0.00407228C4.5935 0.115611 1.95266 2.5957 1.64757 5.76143C1.58524 6.39457 1.62132 7.00803 1.73286 7.59525C1.73286 7.59525 1.7427 7.66414 1.77551 7.79536C1.87392 8.23496 2.02155 8.66143 2.20526 9.06166C2.84497 10.5773 4.32449 13.1131 7.6444 15.8721C7.8478 16.0427 8.14633 16.0427 8.353 15.8721C11.6729 13.1164 13.1524 10.5805 13.7954 9.05837C13.9824 8.65815 14.1268 8.23496 14.2252 7.79208C14.2547 7.66414 14.2678 7.59197 14.2678 7.59197C14.3433 7.19831 14.3826 6.7948 14.3826 6.38145C14.3826 2.77941 11.4006 -0.123869 7.77234 0.00407228ZM7.9987 9.55702C6.28626 9.55702 4.89859 8.16935 4.89859 6.4569C4.89859 4.74446 6.28626 3.35679 7.9987 3.35679C9.71114 3.35679 11.0988 4.74446 11.0988 6.4569C11.0988 8.16935 9.71114 9.55702 7.9987 9.55702Z" fill="white"/>
</g>
<defs>
<clipPath id="clip0_333_24880">
<rect width="16" height="16" fill="white"/>
</clipPath>
</defs>
</svg>
