<svg width="20" height="20" viewBox="0 0 20 20" fill="none" xmlns="http://www.w3.org/2000/svg">
<g clip-path="url(#clip0_333_26731)">
<path d="M9.71543 0.00509035C5.74187 0.144514 2.44082 3.24463 2.05946 7.20179C1.98155 7.99322 2.02665 8.76005 2.16608 9.49407C2.16608 9.49407 2.17838 9.58018 2.21939 9.74421C2.34241 10.2937 2.52694 10.8268 2.75657 11.3271C3.55621 13.2216 5.40561 16.3914 9.5555 19.8401C9.80974 20.0533 10.1829 20.0533 10.4412 19.8401C14.5911 16.3955 16.4405 13.2257 17.2443 11.323C17.478 10.8227 17.6584 10.2937 17.7815 9.74011C17.8184 9.58018 17.8348 9.48997 17.8348 9.48997C17.9291 8.99788 17.9783 8.4935 17.9783 7.97681C17.9783 3.47427 14.2508 -0.154836 9.71543 0.00509035ZM9.99838 11.9463C7.85782 11.9463 6.12323 10.2117 6.12323 8.07113C6.12323 5.93057 7.85782 4.19599 9.99838 4.19599C12.1389 4.19599 13.8735 5.93057 13.8735 8.07113C13.8735 10.2117 12.1389 11.9463 9.99838 11.9463Z" fill="#2F2F2F"/>
</g>
<defs>
<clipPath id="clip0_333_26731">
<rect width="20" height="20" fill="white"/>
</clipPath>
</defs>
</svg>
