<svg width="40" height="26" viewBox="0 0 40 26" fill="none" xmlns="http://www.w3.org/2000/svg">
<path d="M37.0301 9.09731C35.0494 7.16353 32.4545 6.19723 29.8584 6.19723C27.2635 6.19723 24.6674 7.16353 22.6867 9.09731L20.0007 11.7198L15.0568 16.4705L12.7906 18.683C12.0828 19.3741 11.1435 19.7536 10.1429 19.7536C9.14242 19.7536 8.20188 19.3729 7.49527 18.683C6.78746 17.992 6.39876 17.0749 6.39876 16.098C6.39876 15.1212 6.78866 14.2029 7.49527 13.513C8.20308 12.822 9.14242 12.4425 10.1429 12.4425C11.1435 12.4425 12.084 12.8231 12.7906 13.513L13.6844 14.3481L18.2072 9.93243L17.3134 9.09731C15.3327 7.16353 12.7378 6.19723 10.1417 6.19723C7.54565 6.19723 4.95076 7.16353 2.97009 9.09731C-0.990031 12.9637 -0.990031 19.2335 2.97009 23.0999C4.95076 25.0337 7.54565 26 10.1417 26C12.7378 26 15.3327 25.0337 17.3134 23.0999L19.9995 20.4774L22.6855 23.0999C24.6662 25.0337 27.2611 26 29.8572 26C32.4521 26 35.0482 25.0337 37.0289 23.0999C40.9902 19.2335 40.9902 12.9649 37.0301 9.09731ZM32.5061 18.6842C31.7983 19.3753 30.8589 19.7548 29.8584 19.7548C28.8579 19.7548 27.9173 19.3741 27.2107 18.6842L24.563 16.0992L27.2107 13.5142C27.9185 12.8231 28.8579 12.4436 29.8584 12.4436C30.8589 12.4436 31.7995 12.8243 32.5061 13.5142C33.2139 14.2052 33.6026 15.1224 33.6026 16.0992C33.6026 17.076 33.2139 17.9932 32.5061 18.6842Z" fill="#2F2F2F"/>
<path d="M10.1429 4.87485C11.5217 4.87485 12.6394 3.78358 12.6394 2.43743C12.6394 1.09127 11.5217 0 10.1429 0C8.76413 0 7.6464 1.09127 7.6464 2.43743C7.6464 3.78358 8.76413 4.87485 10.1429 4.87485Z" fill="#2F2F2F"/>
<path d="M30.1391 4.87485C31.5179 4.87485 32.6356 3.78358 32.6356 2.43743C32.6356 1.09127 31.5179 0 30.1391 0C28.7603 0 27.6426 1.09127 27.6426 2.43743C27.6426 3.78358 28.7603 4.87485 30.1391 4.87485Z" fill="#2F2F2F"/>
</svg>
