<svg width="18" height="18" viewBox="0 0 18 18" fill="none" xmlns="http://www.w3.org/2000/svg">
<g opacity="0.8" clip-path="url(#clip0_333_26642)">
<path d="M17.5387 8.74436C16.8143 10.2406 15.5266 11.6052 14.3559 12.7064C13.5145 13.4966 11.828 15.0843 9.99878 16.2257C9.38783 16.6062 8.61225 16.6062 8.0013 16.2257C6.17577 15.0843 4.4856 13.4966 3.64417 12.7064C2.47349 11.6052 1.18574 10.237 0.461378 8.74436C-0.709304 6.32251 0.443086 3.13972 2.84298 2.00196C5.12581 0.92274 7.12329 1.66173 9.00004 3.14704C10.8768 1.66173 12.8743 0.92274 15.1534 2.00196C17.557 3.13972 18.7094 6.32251 17.5387 8.74436Z" fill="#2C2C2C"/>
</g>
<defs>
<clipPath id="clip0_333_26642">
<rect width="18" height="18" fill="white"/>
</clipPath>
</defs>
</svg>
