<svg width="201" height="202" viewBox="0 0 201 202" fill="none" xmlns="http://www.w3.org/2000/svg">
<path d="M58.6869 139.182C58.6765 139.182 58.6661 139.181 58.6556 139.18C58.4192 139.163 58.2415 138.957 58.2584 138.72C58.3149 137.937 58.3158 137.147 58.2624 136.373C58.2458 136.137 58.424 135.931 58.6609 135.915C58.8938 135.899 59.1024 136.077 59.1185 136.314C59.1754 137.128 59.1741 137.958 59.1146 138.782C59.0985 139.009 58.9099 139.182 58.6869 139.182Z" fill="#2C2C2C"/>
<path d="M57.8484 141.565C57.7637 141.565 57.6776 141.54 57.6033 141.487C57.4091 141.352 57.3613 141.084 57.4968 140.889L71.0154 121.503C71.151 121.308 71.4191 121.26 71.6129 121.396C71.8071 121.532 71.8549 121.8 71.7194 121.994L58.2008 141.381C58.1174 141.501 57.984 141.565 57.8484 141.565Z" fill="#2C2C2C"/>
<path d="M8.43821 93.1926C8.29214 93.6308 8.14607 94.1421 8 94.5803C8 94.1421 8.07303 93.6308 8.43821 93.1926Z" fill="#FFA307"/>
<path d="M161.886 128.688C160.863 131.755 51.1641 165.279 49.1191 163.234C49.1191 163.234 76.7265 127.884 89.5808 112.401C92.8674 108.384 95.2045 105.755 95.8618 105.316C96.7383 104.732 102.508 106.266 110.396 108.822C129.458 114.957 160.644 126.862 161.959 127.373C161.959 128.031 161.959 128.469 161.886 128.688Z" fill="#2F2F2F"/>
<path d="M148.74 64.7088C148.74 64.7088 161.156 118.025 161.959 127.446C160.645 126.935 129.532 115.03 110.396 108.895L139.537 75.2989L148.74 64.7088Z" fill="#2F2F2F"/>
<path d="M148.739 64.7088L139.61 75.2259C139.61 75.2259 139.902 66.6807 139.829 58.7929L148.739 64.7088Z" fill="#2F2F2F"/>
<path d="M139.829 58.7199C139.902 66.6808 139.61 75.1529 139.61 75.1529L110.469 108.749C102.654 106.193 96.8109 104.659 95.9345 105.244C95.3502 105.682 93.0131 108.311 89.6535 112.328L59.855 102.906C59.855 102.906 61.3157 59.5233 62.3382 57.4783L62.4112 57.4053C64.6023 55.8715 99.5133 50.613 121.278 47.5455C130.845 46.2308 137.93 45.2814 138.514 45.2814C139.464 45.3544 139.756 51.8546 139.829 58.7199Z" fill="#FFFAEE"/>
<path d="M121.278 47.3994V47.6185C99.5133 50.686 64.6753 55.8715 62.4112 57.4783L60.2932 56.6749C72.271 41.3374 83.8106 27.0955 85.7096 27.0955C89.7995 27.0955 121.278 47.3994 121.278 47.3994Z" fill="#2F2F2F"/>
<path d="M59.8556 102.979L89.6541 112.401C76.7998 127.884 49.1924 163.234 49.1924 163.234C47.1474 161.189 31.9561 94.1421 31.9561 94.1421L59.8556 102.979Z" fill="#2F2F2F"/>
<path d="M62.3386 57.5512C61.3161 59.5962 59.8554 102.979 59.8554 102.979L31.8828 94.142C31.8828 94.142 46.3438 74.6415 60.2936 56.6748L62.4116 57.4782C62.4116 57.4782 62.4116 57.5512 62.3386 57.5512Z" fill="#2F2F2F"/>
<path d="M74.6085 71.063C74.0972 71.063 73.659 70.6978 73.5129 70.1865C73.3669 69.6023 73.8051 69.018 74.3894 68.9449L124.565 59.6694C125.149 59.5234 125.733 59.9616 125.806 60.5459C125.879 61.1301 125.514 61.7144 124.93 61.7875L74.8276 71.063C74.7545 71.063 74.6815 71.063 74.6085 71.063Z" fill="#2F2F2F"/>
<path d="M75.9958 81.7261C75.4115 81.7261 74.9733 81.2878 74.9003 80.7766C74.8273 80.1923 75.2655 79.608 75.8498 79.535C85.1253 78.5125 94.4008 76.4675 103.311 74.3495C109.957 72.8157 116.823 71.282 123.688 70.1864C124.272 70.1134 124.857 70.4786 124.93 71.0629C125.003 71.6472 124.637 72.2314 124.053 72.3045C117.261 73.4 110.469 74.9338 103.822 76.4675C94.7659 78.5125 85.4904 80.6305 76.0689 81.653C76.0689 81.726 76.0689 81.7261 75.9958 81.7261Z" fill="#2F2F2F"/>
<path d="M73.9509 93.1196C73.7318 93.1196 73.5857 93.1196 73.3666 93.1196C72.7823 93.1196 72.2711 92.5353 72.3441 91.951C72.3441 91.3668 72.9284 90.8555 73.5127 90.9285C74.6813 91.0016 75.8498 90.7825 77.0184 90.5634L122.3 82.0913L122.373 82.0182C122.593 81.7991 122.958 81.507 123.469 81.4339C124.199 81.3609 124.784 81.7991 124.857 82.5295C124.93 83.1868 124.565 83.9902 123.834 84.0632C123.688 84.0632 123.469 84.0632 123.25 83.9902C123.104 84.0632 122.958 84.1362 122.812 84.1362L77.3836 92.6084C76.2881 92.9005 75.1195 93.1196 73.9509 93.1196Z" fill="#2F2F2F"/>
<path d="M77.6026 103.491C77.0914 103.491 76.6531 103.125 76.5071 102.614C76.361 102.03 76.7992 101.446 77.3835 101.3L112.952 94.3611C113.536 94.2151 114.12 94.6533 114.266 95.2376C114.412 95.8218 113.974 96.4061 113.39 96.5522L77.8217 103.491C77.7487 103.491 77.6756 103.491 77.6026 103.491Z" fill="#2F2F2F"/>
<path d="M49.557 164.402C48.8266 164.402 48.6075 164.183 48.3884 163.964C46.2704 161.846 34.4386 110.137 30.8599 94.3612C30.7869 94.0691 30.8599 93.7039 31.079 93.4848C31.2251 93.3387 43.7142 76.5406 56.4954 59.9615C82.6421 26 84.614 26 85.7095 26C89.8726 26 116.531 43.0903 121.862 46.523C122.373 46.8151 122.519 47.5455 122.154 48.0567C121.862 48.568 121.132 48.714 120.621 48.3489C105.648 38.7082 88.5579 28.4832 85.7826 28.1911C81.8387 29.9439 51.5289 69.4561 33.051 94.3612C38.8208 119.851 47.8772 157.829 49.8491 162.211C58.0291 161.919 155.093 132.194 160.936 128.177C161.082 124.306 153.048 88.0071 147.79 65.3661L139.245 59.6694C138.733 59.3042 138.587 58.6469 138.952 58.1356C139.318 57.6244 139.975 57.4783 140.486 57.8435L149.397 63.7593C149.616 63.9054 149.762 64.1245 149.835 64.4167C153.194 78.8046 164.077 125.913 162.981 128.98C162.689 129.783 162.178 131.39 117.699 145.34C92.3558 153.301 66.8664 160.604 55.838 163.234C52.1863 164.11 50.4334 164.402 49.557 164.402Z" fill="#DDDDDD"/>
<path d="M89.6536 113.497C89.5805 113.497 89.4345 113.497 89.2884 113.424L31.5173 95.1646C30.9331 95.0186 30.6409 94.3613 30.787 93.777C30.9331 93.1927 31.5904 92.9006 32.1747 93.0466L89.9457 111.305C90.53 111.452 90.8221 112.109 90.6761 112.693C90.53 113.131 90.0918 113.497 89.6536 113.497Z" fill="#DDDDDD"/>
<path d="M49.1188 164.329C48.8997 164.329 48.6806 164.256 48.4615 164.11C47.9503 163.745 47.8772 163.015 48.2424 162.576C52.6976 156.807 92.1367 106.485 95.2042 104.44C96.0806 103.856 97.5413 102.833 130.334 114.592C146.329 120.289 162.105 126.351 162.251 126.424C162.835 126.643 163.127 127.3 162.908 127.812C162.689 128.396 162.032 128.688 161.52 128.469C138.295 119.559 100.244 105.755 96.3728 106.339C93.6705 108.53 67.2316 141.834 49.9952 163.964C49.7761 164.183 49.484 164.329 49.1188 164.329Z" fill="#DDDDDD"/>
<path d="M110.396 109.918C110.177 109.918 109.884 109.845 109.665 109.626C109.227 109.26 109.154 108.53 109.592 108.092L147.863 63.9783C148.228 63.5401 148.958 63.4671 149.397 63.9053C149.835 64.2705 149.908 65.0008 149.47 65.4391L111.126 109.626C110.98 109.772 110.688 109.918 110.396 109.918Z" fill="#DDDDDD"/>
<path d="M59.8551 104.075C59.1977 104.075 58.7595 103.564 58.7595 102.906C59.1247 92.6813 60.3663 59.158 61.3888 57.04C61.827 56.2366 62.2652 55.2141 99.9515 49.5904C117.699 46.9611 137.346 44.2588 138.587 44.2588C138.952 44.2588 139.318 44.4049 139.537 44.697C141.363 46.5959 140.997 64.6357 140.705 75.2258C140.705 75.8101 140.194 76.3214 139.537 76.2483C138.952 76.2483 138.441 75.7371 138.514 75.0798C138.952 62.7368 138.879 49.1522 138.076 46.3768C130.846 47.0341 68.3272 56.0905 63.2877 58.1355C62.6304 61.3491 61.4618 86.9845 60.9506 102.906C60.9506 103.564 60.4393 104.075 59.8551 104.075Z" fill="#DDDDDD"/>
</svg>
